<svg width="1200" height="675" xmlns="http://www.w3.org/2000/svg">
  <rect width="1200" height="675" fill="#18181b"/>
  <circle cx="600" cy="260" r="80" fill="#ef4444" opacity="0.15"/>
  <!-- Student/people icon -->
  <g transform="translate(600,260)" fill="none" stroke="#ef4444" stroke-width="3" stroke-linecap="round" stroke-linejoin="round">
    <!-- Main person -->
    <circle cx="0" cy="-22" r="12" fill="#ef4444" opacity="0.25"/>
    <path d="M-20,15 Q-20,-5 0,-5 Q20,-5 20,15" fill="#ef4444" opacity="0.2"/>
    <!-- Person left -->
    <circle cx="-28" cy="-15" r="8" fill="#ef4444" opacity="0.15"/>
    <path d="M-40,10 Q-40,-2 -28,-2 Q-18,-2 -18,10" fill="#ef4444" opacity="0.1"/>
    <!-- Person right -->
    <circle cx="28" cy="-15" r="8" fill="#ef4444" opacity="0.15"/>
    <path d="M18,10 Q18,-2 28,-2 Q38,-2 38,10" fill="#ef4444" opacity="0.1"/>
    <!-- Data lines below -->
    <line x1="-15" y1="25" x2="15" y2="25"/>
    <line x1="-10" y1="33" x2="10" y2="33"/>
  </g>
  <text x="600" y="390" text-anchor="middle" fill="#ffffff" font-family="system-ui, -apple-system, sans-serif" font-size="32" font-weight="700">Perahin</text>
  <text x="600" y="425" text-anchor="middle" fill="#a1a1aa" font-family="system-ui, -apple-system, sans-serif" font-size="18">Student Data Management System</text>
  <rect x="560" y="445" width="80" height="3" rx="1.5" fill="#ef4444" opacity="0.6"/>
</svg>