<svg width="1200" height="675" xmlns="http://www.w3.org/2000/svg">
  <rect width="1200" height="675" fill="#18181b"/>
  <circle cx="600" cy="260" r="80" fill="#f97316" opacity="0.15"/>
  <!-- Question mark / quiz icon -->
  <g transform="translate(600,260)" fill="none" stroke="#f97316" stroke-width="3" stroke-linecap="round" stroke-linejoin="round">
    <!-- Question mark circle -->
    <circle cx="0" cy="-5" r="30" fill="#f97316" opacity="0.15"/>
    <!-- Question mark -->
    <path d="M-8,-18 Q-8,-28 0,-28 Q10,-28 10,-18 Q10,-10 0,-10 L0,-5" stroke-width="3.5"/>
    <circle cx="0" cy="2" r="2" fill="#f97316"/>
    <!-- Answer options -->
    <rect x="-35" y="22" width="14" height="14" rx="2" fill="#f97316" opacity="0.2"/>
    <rect x="-14" y="22" width="14" height="14" rx="2" fill="#f97316" opacity="0.2"/>
    <rect x="7" y="22" width="14" height="14" rx="2" fill="#f97316" opacity="0.3" stroke="#f97316"/>
    <polyline points="10,30 13,33 18,26" stroke-width="2"/>
    <rect x="28" y="22" width="14" height="14" rx="2" fill="#f97316" opacity="0.2"/>
  </g>
  <text x="600" y="390" text-anchor="middle" fill="#ffffff" font-family="system-ui, -apple-system, sans-serif" font-size="32" font-weight="700">Quizz</text>
  <text x="600" y="425" text-anchor="middle" fill="#a1a1aa" font-family="system-ui, -apple-system, sans-serif" font-size="18">Interactive Online Education Platform</text>
  <rect x="560" y="445" width="80" height="3" rx="1.5" fill="#f97316" opacity="0.6"/>
</svg>